<svg width="52" height="52" viewBox="0 0 52 52" fill="none" xmlns="http://www.w3.org/2000/svg">
<rect width="52" height="52" rx="26" fill="#103813"/>
<path d="M30.836 29.7975L29.8467 29.159C29.1753 29.6526 28.3238 29.8191 27.5252 29.6345C25.6845 29.2088 26.385 29.3708 24.6904 28.979C24.9172 29.3756 25.1086 29.7914 25.266 30.2352L26.9166 31.3005L25.6826 32.193C25.7425 32.9648 25.6845 33.7463 25.5065 34.5159L24.9551 36.9007L30.9101 32.5936C31.3634 32.2657 31.6256 31.7353 31.6107 31.176C31.596 30.6167 31.306 30.1009 30.836 29.7975Z" fill="white"/>
<path d="M40.0876 20.1076L35.1068 20.2554L25.4 14.897L23.5743 11.8283L27.2784 8.4555C27.8549 7.9306 27.8966 7.03775 27.3717 6.4612C26.8467 5.88483 25.954 5.84296 25.3774 6.36787L20.8296 10.5089C20.3376 10.9571 20.2253 11.688 20.5602 12.2631L23.7629 17.7627L22.2275 20.4505C23.3174 21.0275 24.1636 21.9832 24.603 23.1362L28.7563 24.0965L30.51 21.0265L34.1202 22.9265C34.3232 23.0333 34.5488 23.089 34.7777 23.089C34.7916 23.089 34.8055 23.0888 34.8195 23.0884L40.1713 22.9297C40.9506 22.9065 41.5636 22.256 41.5405 21.4768C41.5179 20.7126 40.8869 20.0882 40.0876 20.1076Z" fill="white"/>
<path d="M30.6473 16.1743C32.2632 16.1743 33.5731 14.8644 33.5731 13.2486C33.5731 11.6327 32.2632 10.3228 30.6473 10.3228C29.0315 10.3228 27.7216 11.6327 27.7216 13.2486C27.7216 14.8644 29.0315 16.1743 30.6473 16.1743Z" fill="white"/>
<path d="M21.3623 27.9086C21.9183 27.6232 22.3616 27.2083 22.6746 26.7036L27.9224 27.9172C28.5006 28.0508 29.0769 27.6903 29.2105 27.113C29.3457 26.5283 28.9741 25.9562 28.4062 25.825C27.8484 25.696 23.7132 24.7397 23.1584 24.6114C23.0182 23.2204 22.0111 22.0411 20.6129 21.7109C19.2028 21.376 17.7631 22.0043 17.0233 23.1927L11.7739 21.9788C11.7725 21.9784 11.7711 21.9784 11.7696 21.9781C11.2525 21.8605 10.7147 22.1412 10.5256 22.6529C10.3026 23.2592 10.6576 23.9045 11.2593 24.0624C11.2696 24.0651 11.2795 24.0687 11.2899 24.0711C11.9205 24.2169 15.6828 25.0869 16.5393 25.285C16.5393 25.2851 16.5393 25.2852 16.5393 25.2853C16.6044 25.9186 16.8587 26.5141 17.1888 26.9432C16.9893 27.0098 13.2037 27.4667 12.2806 31.4576L10.8061 37.835C10.6367 38.5674 11.1016 39.2792 11.8101 39.443L12.7142 39.652L13.4564 36.4422C13.9097 34.4819 15.8681 33.2662 17.8203 33.7175C19.7792 34.1705 20.998 36.1222 20.545 38.0813L19.8027 41.2911L20.7067 41.5002C20.7068 41.5002 20.7069 41.5002 20.707 41.5003C21.4255 41.6662 22.148 41.2178 22.3146 40.4963L23.7893 34.1188C24.3481 31.7035 23.3332 29.2534 21.3623 27.9086ZM19.4959 26.4717C18.6556 26.2773 18.1301 25.4358 18.3244 24.5956C18.5191 23.7534 19.3583 23.2295 20.2005 23.4243C21.0425 23.6189 21.5666 24.4581 21.3717 25.3002C21.1771 26.1421 20.3381 26.6664 19.4959 26.4717Z" fill="white"/>
<path d="M17.423 35.4348C16.4143 35.2015 15.4069 35.8301 15.1736 36.8393L13.5867 43.7019C13.3534 44.7109 13.9822 45.7179 14.9912 45.9513C16 46.1847 17.0073 45.556 17.2407 44.5468L18.8276 37.6843C19.0608 36.6752 18.432 35.6681 17.423 35.4348Z" fill="white"/>
</svg>
