<svg width="52" height="52" viewBox="0 0 52 52" fill="none" xmlns="http://www.w3.org/2000/svg">
<rect width="52" height="52" rx="26" fill="#553906"/>
<path d="M12.0026 34.0826V16.6307C12.0026 16.0671 12.3269 15.344 12.7731 14.9014C12.895 14.7804 13.0572 14.7006 13.1791 14.6196H13.2193C15.165 13.1321 17.7191 12.0461 20.6377 11.4426C22.1787 11.1608 23.8001 11 25.5019 11C27.2038 11 28.8265 11.1608 30.3662 11.4426C33.2848 12.0461 35.8389 13.1321 37.7846 14.6196H37.8248C37.9467 14.7006 38.0687 14.7804 38.1893 14.9014C38.6355 15.344 39 16.0671 39 16.6307V34.0826C39 35.3693 38.1076 36.3742 36.9324 36.656V38.9888C36.9324 40.0748 36.0399 41 34.9464 41C33.8114 41 32.919 40.0748 32.919 38.9888V36.7371H18.0823V38.9888C18.0823 40.0748 17.1497 41 16.0549 41C14.9199 41 14.0274 40.0748 14.0274 38.9888V36.656C12.8522 36.3742 12 35.3693 12 34.0826H12.0026ZM32.2704 14.0187H18.7309C18.0006 14.0187 17.3935 14.6221 17.3935 15.3453C17.3935 16.0285 18.0019 16.632 18.7309 16.632H32.2704C33.0007 16.632 33.5676 16.0285 33.5676 15.3453C33.5676 14.6208 32.9994 14.0187 32.2704 14.0187ZM16.0562 27.3684H34.9049C35.6352 27.3684 36.2423 26.7251 36.2423 26.0006V19.3663C36.2423 18.6419 35.6339 17.9985 34.9049 17.9985H16.0562C15.3259 17.9985 14.759 18.6419 14.759 19.3663V26.0006C14.759 26.7251 15.3272 27.3684 16.0562 27.3684ZM17.5154 34.0826C18.6907 34.0826 19.6233 33.1175 19.6233 31.9518C19.6233 30.7448 18.6907 29.8209 17.5154 29.8209C16.2987 29.8209 15.3674 30.7461 15.3674 31.9518C15.3674 33.1175 16.3 34.0826 17.5154 34.0826ZM33.4456 34.0826C34.6624 34.0826 35.6352 33.1175 35.6352 31.9518C35.6352 30.7448 34.6624 29.8209 33.4456 29.8209C32.2704 29.8209 31.3378 30.7461 31.3378 31.9518C31.3378 33.1175 32.2704 34.0826 33.4456 34.0826Z" fill="white"/>
</svg>
