<svg width="52" height="52" viewBox="0 0 52 52" fill="none" xmlns="http://www.w3.org/2000/svg">
<rect width="52" height="52" rx="26" fill="#145C19"/>
<path d="M17.2408 25.7263C17.2408 25.7263 19.1419 26.0498 20.6938 27.0654C22.2454 28.082 22.8411 29.9304 22.8411 29.9304H28.8477C28.8477 29.9304 29.7589 27.2946 31.2057 26.6216C32.6517 25.9464 34.9086 25.4945 34.9086 25.4945C34.9086 25.4945 34.8112 25.527 34.8734 22.6017C36.8786 20.7448 37.9142 18.4302 37.9142 15.6794C37.9142 9.9496 32.5786 5.30457 25.9992 5.30457C19.4201 5.30457 14.0864 9.94961 14.0864 15.6794C14.0864 18.4072 15.2956 20.8873 17.2697 22.7392C17.17 24.7142 17.2408 25.7263 17.2408 25.7263ZM30.8549 14.7142C32.6797 14.7142 34.1582 16.4407 34.1582 18.5686C34.1582 20.6979 32.6789 22.4226 30.8549 22.4226C29.03 22.4226 27.5516 20.6971 27.5516 18.5686C27.5516 16.4407 29.031 14.7142 30.8549 14.7142ZM25.8368 22.935L26.2026 23.4054C27.1185 24.5839 27.5074 26.1724 27.5245 26.2392L26.5674 26.4692C26.5638 26.457 26.3198 25.4662 25.7898 24.5524C25.1737 25.5014 25.1079 26.3758 25.107 26.3863L24.1252 26.3204C24.1306 26.2568 24.2425 24.754 25.4453 23.382L25.8368 22.935ZM21.4457 14.7142C23.2709 14.7142 24.7485 16.4407 24.7485 18.5686C24.7485 20.6979 23.2701 22.4226 21.4457 22.4226C19.6213 22.4226 18.1424 20.6971 18.1424 18.5686C18.1415 16.4407 19.6204 14.7142 21.4457 14.7142Z" fill="white"/>
<path d="M38.534 37.6103C37.1773 36.9401 35.4913 37.4064 34.7607 38.653C34.5785 38.9651 34.4721 39.2988 34.4386 39.6317L28.882 36.8796L34.4035 34.0328C34.454 34.3287 34.5568 34.6236 34.7264 34.9005C35.4769 36.1354 37.1755 36.5764 38.5177 35.8838C39.859 35.1909 40.3372 33.6286 39.5848 32.3937C39.03 31.4827 37.9629 31.0064 36.9012 31.0957C37.5371 30.3091 37.6535 29.2212 37.0988 28.3111C36.3474 27.0762 34.6507 26.6351 33.3075 27.3278C31.967 28.0206 31.4873 29.583 32.2404 30.8188C32.4768 31.2048 32.8052 31.5133 33.1849 31.7352L25.9875 35.4479L18.7215 31.8497C19.0968 31.6225 19.4211 31.3085 19.6488 30.9188C20.3767 29.6713 19.8689 28.1179 18.515 27.446C17.1606 26.7748 15.4711 27.243 14.7427 28.4905C14.2051 29.4088 14.3418 30.4947 14.993 31.2705C13.9304 31.1984 12.87 31.6927 12.3333 32.6127C11.6044 33.8595 12.1128 35.4145 13.4668 36.0847C14.8221 36.7549 16.5111 36.2886 17.239 35.0411C17.4046 34.7614 17.5025 34.4655 17.5448 34.1678L23.1194 36.928L17.6143 39.7658C17.5746 39.4348 17.4637 39.1038 17.2751 38.7934C16.5233 37.5594 14.8265 37.1175 13.4843 37.8102C12.1412 38.5029 11.6626 40.0652 12.4167 41.3002C12.9697 42.2113 14.0386 42.6884 15.0998 42.6C14.4625 43.3866 14.3479 44.4736 14.9004 45.3837C15.6532 46.6195 17.3499 47.0597 18.6931 46.3669C20.0344 45.6742 20.5134 44.1119 19.7588 42.877C19.5464 42.5251 19.2519 42.2392 18.9127 42.0236L26.014 38.3614L33.1839 41.9109C32.8484 42.1318 32.5588 42.4214 32.3522 42.7768C31.6234 44.0243 32.1304 45.5786 33.4861 46.2497C34.8427 46.9208 36.5296 46.4526 37.2594 45.206C37.7979 44.2868 37.6599 43.2008 37.0086 42.4249C38.0702 42.4972 39.1302 42.0028 39.6678 41.0827C40.3958 39.8365 39.887 38.2813 38.534 37.6103Z" fill="white"/>
</svg>
