<svg width="52" height="52" viewBox="0 0 52 52" fill="none" xmlns="http://www.w3.org/2000/svg">
<rect width="52" height="52" rx="26" fill="#161F77"/>
<path d="M39.2618 36.8128L32.718 26.7609C32.2448 26.0326 31.4372 25.7057 30.6279 25.7057C30.4604 25.7057 30.1137 25.7097 29.739 25.7149C29.7098 25.6659 29.6793 25.6172 29.63 25.5841L27.9818 24.4895C27.7917 24.3633 27.5448 24.37 27.3624 24.5041L25.9993 25.5102L24.6353 24.5041C24.4515 24.37 24.206 24.3633 24.0143 24.4895L22.3691 25.5841C22.3226 25.6144 22.2931 25.657 22.266 25.7016C21.8777 25.7041 21.5158 25.7062 21.3634 25.7062C20.5578 25.7062 19.7539 26.0375 19.2835 26.7609L12.7397 36.8128C12.0439 37.8798 12.3255 39.3068 13.3747 40.0294L14.8273 41.0306C15.703 38.9454 17.1492 37.1624 18.9655 35.8606L19.3401 35.2846V35.5951C20.6562 34.7256 22.1504 34.109 23.7545 33.8068C23.2779 32.749 22.8779 31.4889 22.5846 30.3011C22.2428 28.9151 22.0424 27.6307 22.0424 26.9033C22.0424 26.6338 22.0772 26.3742 22.1301 26.121L23.3204 30.0601C23.3821 30.2664 23.5605 30.4153 23.7742 30.4405C23.7957 30.4429 23.8167 30.4442 23.8372 30.4442C24.0274 30.4442 24.2074 30.3437 24.3052 30.1756L25.2332 28.5772L25.4943 28.8374C24.8695 29.6639 24.624 31.9902 24.5287 33.6885C25.0108 33.6294 25.4992 33.5902 25.9969 33.5902C26.4956 33.5902 26.9855 33.6302 27.4691 33.6891C27.3737 31.9909 27.1283 29.6646 26.502 28.8374L26.7631 28.5756L27.694 30.1755C27.7918 30.3436 27.9692 30.4441 28.1609 30.4441C28.1814 30.4441 28.2029 30.4428 28.2235 30.4404C28.4371 30.4152 28.6156 30.2662 28.6787 30.06L29.8683 26.1292C29.9193 26.3798 29.9529 26.6369 29.9529 26.9032C29.9529 28.255 29.2752 31.5153 28.2416 33.8067C29.8487 34.1098 31.3453 34.7279 32.6616 35.5996V35.286L33.0424 35.8696C34.8524 37.172 36.2947 38.9521 37.168 41.0338L38.6269 40.0294C39.6758 39.3068 39.956 37.8798 39.2618 36.8128ZM23.9952 28.5571L23.3024 26.2624L24.2988 25.5997L25.2899 26.3306L23.9952 28.5571ZM28.0023 28.5571L26.7091 26.3306L27.6992 25.5996L28.6966 26.2624L28.0023 28.5571Z" fill="white"/>
<path d="M22.6077 40.4638L23.7904 42.0201C24.446 41.6248 25.2058 41.4082 25.9964 41.4082C26.7885 41.4082 27.5498 41.6248 28.2054 42.0207L29.3881 40.4633C28.4659 39.5948 27.2691 39.1184 25.9979 39.1184C24.7261 39.1184 23.5278 39.5955 22.6077 40.4638Z" fill="white"/>
<path d="M20.5151 19.2184C20.5552 21.2658 21.7184 23.02 23.413 23.9309C24.1869 24.3475 25.0597 24.6052 26.0008 24.6052C26.9405 24.6052 27.8108 24.348 28.5838 23.9322C30.2779 23.0224 31.4455 21.2685 31.4841 19.2204C30.0863 20.1916 28.1144 20.8228 26.0008 20.8228C23.8873 20.8228 21.9148 20.1916 20.5151 19.2184Z" fill="white"/>
<path d="M20.3578 14.3568L20.3397 15.9819C20.3427 17.2681 22.8752 18.9434 26.0005 18.9434C29.1256 18.9434 31.6559 17.2681 31.6573 15.9819L31.6406 14.3576C32.463 14.1435 33.1011 13.8254 33.5098 13.3682C33.83 13.0116 34.0138 12.5718 34.0138 12.0183C34.014 9.51087 30.4228 6.30304 26.0006 6.30304C21.5744 6.30304 17.9871 9.51087 17.9871 12.0183C17.9871 12.5718 18.1699 13.0108 18.4887 13.3682C18.8975 13.8253 19.5365 14.1434 20.3578 14.3568Z" fill="white"/>
<path d="M25.9964 35.0109C20.1044 35.0109 15.3105 39.805 15.3105 45.697H18.0025C18.0025 45.6931 18.0025 45.6878 18.0025 45.684V45.6815C18.09 45.1541 18.5423 44.7699 19.0733 44.7699C19.0825 44.7699 19.0928 44.7707 19.1031 44.7707L23.2619 44.8786C23.1836 45.1397 23.1294 45.411 23.1294 45.6971H28.8659C28.8659 45.411 28.8121 45.1397 28.7324 44.8786L32.8926 44.7707C32.9013 44.7707 32.9102 44.7699 32.921 44.7699C33.4514 44.7699 33.9057 45.1541 33.9926 45.6815V45.684C33.9926 45.6878 33.9926 45.6931 33.9926 45.697H36.6822C36.6823 39.805 31.8899 35.0109 25.9964 35.0109ZM30.6094 41.2029L28.3925 44.1239C27.8787 43.3448 26.9991 42.8286 25.9963 42.8286C24.996 42.8286 24.1154 43.3443 23.6025 44.1234L21.3863 41.2038C21.0083 40.7056 21.0557 40.0035 21.4982 39.561C22.741 38.3189 24.3687 37.6978 25.9978 37.6978C27.6264 37.6978 29.2539 38.3189 30.4988 39.5621C30.9408 40.0042 30.9874 40.7049 30.6094 41.2029Z" fill="white"/>
</svg>
