<svg width="52" height="52" viewBox="0 0 52 52" fill="none" xmlns="http://www.w3.org/2000/svg">
<rect width="52" height="52" rx="26" fill="#913C22"/>
<path d="M38.4691 41.6009C38.3819 42.7569 37.3786 43.6074 36.2227 43.5201C35.852 43.4983 35.5901 43.3674 35.263 43.2149C35.263 43.2149 29.3306 39.18 28.9816 38.8964C28.3927 38.3949 27.8039 37.8059 27.5421 36.9553C27.4549 36.65 26.2553 32.5714 26.2553 32.5714L25.7167 44H13.678L13.9689 39.398H11.1189C9.39586 39.398 8 38.0021 8 36.2791C8 35.8647 8.06543 35.4721 8.21814 35.1231C8.21814 35.1231 11.4461 27.8821 12.0569 26.7043C12.9511 24.9376 14.5214 24.1743 16.7243 24.2397H22.5477L10.3556 32.9857L9.265 35.5376C9.156 35.7557 9.11229 36.0174 9.11229 36.2791C9.11229 37.3697 10.0066 38.2639 11.097 38.2639H21.2389C22.9619 38.2639 24.3577 36.868 24.3577 35.145C24.3577 33.6183 23.2671 32.3314 21.8277 32.0697L24.7939 24.1961H25.4919C27.1276 24.1961 28.4144 25.3084 28.7853 26.5734L31.119 34.9923C31.1626 35.1231 31.3153 35.3849 31.5116 35.5376C31.7514 35.712 37.6621 39.7689 37.6621 39.7689C38.2074 40.1831 38.5346 40.8593 38.4691 41.6009ZM20.5629 22.8003C23.1147 22.9966 25.3393 21.0991 25.5356 18.5473C25.7319 15.9954 23.8344 13.7709 21.2826 13.5746C18.7307 13.3783 16.506 15.2757 16.3097 17.8274C16.1134 20.3793 18.011 22.604 20.5629 22.8003ZM23.2237 35.1231C23.2237 34.098 22.4386 33.2693 21.457 33.1601L20.0176 37.1297L21.239 37.1079C22.3294 37.1079 23.2237 36.2137 23.2237 35.1231ZM39.4 10.76V8H33.8814V10.76H29.2814V21.83H44V10.76H39.4ZM35.0314 9.15H38.25V10.76H35.0314V9.15ZM36.6414 20.31C34.4 20.31 32.5843 18.4929 32.5843 16.2529C32.5843 14.0129 34.4 12.1971 36.6414 12.1971C38.8814 12.1971 40.6971 14.0129 40.6971 16.2529C40.6971 18.4929 38.8814 20.31 36.6414 20.31ZM39.2123 17.0166H37.4043V18.8246H35.8774V17.0166H34.0694V15.4897H35.8774V13.6817H37.4043V15.4897H39.2123V17.0166Z" fill="white"/>
</svg>
