<svg width="52" height="52" viewBox="0 0 52 52" fill="none" xmlns="http://www.w3.org/2000/svg">
<rect width="52" height="52" rx="26" fill="#12652D"/>
<path d="M35.3935 18.8899H33.0602C32.9059 17.5032 32.4349 16.2051 31.6875 15.2003H35.3935C36.2812 15.2003 37 14.5206 37 13.6106C37 12.7001 36.2811 12.0016 35.3935 12.0016H22.8267C22.7807 12.0016 22.7364 12 22.6892 12C22.6586 12 22.628 12.0016 22.5974 12.0016H16.6065C15.7189 12.0016 15 12.7006 15 13.6106C15 14.5205 15.7189 15.2003 16.6065 15.2003H23.7311C25.9811 15.3683 28.3379 16.2609 28.9587 18.8899H16.6065C15.7189 18.8899 15 19.6276 15 20.538C15 21.448 15.7189 22.1861 16.6065 22.1861H28.7986C28.0401 24.2637 25.9565 25.5309 23.0608 25.5309H19.8656H19.8563H17.9932C17.1278 25.5309 16.4262 26.2503 16.4262 27.1377C16.4262 28.0254 17.1278 28.7448 17.9932 28.7448H19.8342C19.8418 28.7457 19.8486 28.7495 19.8562 28.7495H22.7637C25.9226 28.8726 27.3276 30.2773 28.1332 34.1203C28.7635 36.975 29.2275 38.8343 29.5925 39.948C29.8659 40.9783 30.4071 42.5306 31.3459 43.4578C31.713 43.8198 32.1865 44 32.6584 44C33.155 44 33.6516 43.8008 34.0232 43.4045C34.7043 42.6786 34.7167 41.5553 34.0925 40.8045C34.0897 40.7956 34.0909 40.7859 34.0864 40.777C33.5101 39.6807 32.8131 36.7402 31.9626 33.0105C31.2865 29.9777 30.0235 28.0888 28.1097 27.25C30.5128 26.304 32.1659 24.4946 32.8138 22.1856H35.3934C36.2811 22.1856 36.9999 21.4476 36.9999 20.5376C36.9999 19.6276 36.2812 18.8899 35.3935 18.8899Z" fill="white"/>
</svg>
