<svg width="52" height="52" viewBox="0 0 52 52" fill="none" xmlns="http://www.w3.org/2000/svg">
<rect width="52" height="52" rx="26" fill="#06252F"/>
<path d="M42.8448 39.914C42.8448 39.914 38.4283 32.3234 37.6361 30.9621C38.5375 30.6871 39.4976 30.4443 39.8966 29.7554C40.5615 28.6076 39.3779 26.7247 39.6887 25.4944C40.0088 24.2282 41.8986 23.1325 41.8986 21.8454C41.8986 20.5915 39.9449 19.1265 39.6245 17.8677C39.3116 16.6377 40.4916 14.7527 39.8245 13.6063C39.1575 12.4598 36.9357 12.554 36.0212 11.6739C35.0801 10.7682 35.083 8.5524 33.948 7.94548C32.8084 7.3363 30.9562 8.56745 29.6909 8.27582C28.4399 7.98752 27.3223 6.10406 26.0157 6.10406C24.6897 6.10406 22.5806 8.24055 22.2498 8.31744C20.9851 8.61144 19.1306 7.38329 17.9921 7.99505C16.8582 8.60402 16.8652 10.8201 15.9259 11.7272C15.0128 12.6089 12.7909 12.5188 12.1259 13.6666C11.461 14.8142 12.6446 16.6967 12.3339 17.9276C12.0224 19.1617 10.0668 20.4121 10.0668 21.8393C10.0668 23.1265 11.9613 24.2187 12.2834 25.4843C12.5964 26.7144 11.4164 28.5991 12.0834 29.746C12.4466 30.3702 13.2705 30.6264 14.0934 30.8728C14.1894 30.9015 14.371 31.0089 14.248 31.1882C13.6851 32.1599 9.15412 39.9796 9.15412 39.9796C8.79366 40.6016 9.08637 41.1348 9.80437 41.165L13.3189 41.3116C14.0369 41.3418 14.9376 41.8635 15.3209 42.4714L17.1963 45.4473C17.5795 46.0552 18.1876 46.0438 18.548 45.4219C18.548 45.4219 23.7953 36.3626 23.7975 36.36C23.9027 36.237 24.0085 36.2623 24.0592 36.3053C24.6333 36.7942 25.4337 37.2818 26.1017 37.2818C26.7568 37.2818 27.3634 36.8228 27.9634 36.3108C28.0122 36.2692 28.1311 36.1839 28.218 36.3609C28.2194 36.3637 33.4609 45.3734 33.4609 45.3734C33.8222 45.9946 34.4304 46.0051 34.8125 45.3965L36.6826 42.417C37.0648 41.8087 37.9645 41.2849 38.6825 41.2536L42.1967 41.1005C42.9144 41.069 43.2062 40.5351 42.8448 39.914ZM31.8239 31.765C27.938 34.0257 23.2738 33.7834 19.7112 31.5363C14.4909 28.1925 12.7733 21.2755 15.9114 15.8591C19.0854 10.3803 26.0625 8.44702 31.5908 11.4579C31.6198 11.4737 31.6485 11.49 31.6773 11.5061C31.7183 11.5288 31.7592 11.5518 31.7999 11.5751C33.5054 12.5584 34.9843 13.9854 36.0433 15.8057C39.2799 21.3691 37.3872 28.5285 31.8239 31.765Z" fill="white"/>
<path d="M30.9349 13.2124C30.9187 13.203 30.9024 13.1943 30.8863 13.1851C27.9332 11.4759 24.1693 11.351 21.0148 13.1862C16.3336 15.9096 14.7407 21.9336 17.4641 26.6147C18.2951 28.0431 19.4339 29.1834 20.7477 30.0018C20.8595 30.0725 20.9725 30.1421 21.088 30.209C25.7742 32.9239 31.7949 31.3201 34.5097 26.6341C37.2244 21.9479 35.6211 15.9273 30.9349 13.2124ZM32.1072 20.8732L30.4663 22.4725C29.9581 22.9679 29.6405 23.9455 29.7606 24.6451L30.1479 26.9034C30.2679 27.6029 29.8522 27.905 29.224 27.5747L27.1958 26.5084C26.5676 26.1782 25.5397 26.1782 24.9115 26.5084L22.8834 27.5747C22.2552 27.905 21.8393 27.6029 21.9593 26.9034L22.3467 24.6451C22.4667 23.9455 22.149 22.9679 21.6408 22.4725L20.0001 20.8732C19.4918 20.3779 19.6507 19.889 20.353 19.7869L22.6205 19.4574C23.3228 19.3554 24.1544 18.7511 24.4685 18.1147L25.4826 16.0601C25.7967 15.4237 26.3107 15.4237 26.6247 16.0601L27.6389 18.1147C27.953 18.7511 28.7845 19.3554 29.4869 19.4574L31.7544 19.7869C32.4566 19.889 32.6154 20.3779 32.1072 20.8732Z" fill="white"/>
</svg>
