<svg width="52" height="52" viewBox="0 0 52 52" fill="none" xmlns="http://www.w3.org/2000/svg">
<rect width="52" height="52" rx="26" fill="#0A474A"/>
<path d="M16.8519 38.1H13.5611C13.1471 38.1 12.75 38.2645 12.4572 38.5572C12.1645 38.85 12 39.2471 12 39.6611C12 40.0751 12.1645 40.4722 12.4572 40.765C12.75 41.0577 13.1471 41.2222 13.5611 41.2222H38.5389C38.9529 41.2222 39.35 41.0577 39.6428 40.765C39.9355 40.4722 40.1 40.0751 40.1 39.6611C40.1 39.2471 39.9355 38.85 39.6428 38.5572C39.35 38.2645 38.9529 38.1 38.5389 38.1H35.2481C34.8625 33.7695 33.5761 26.2199 29.2753 24.05C33.2779 21.8285 34.6658 16.5411 35.1513 13.1222H38.5389C38.9529 13.1222 39.35 12.9577 39.6428 12.665C39.9355 12.3722 40.1 11.9751 40.1 11.5611C40.1 11.1471 39.9355 10.75 39.6428 10.4572C39.35 10.1645 38.9529 10 38.5389 10H13.5611C13.1471 10 12.75 10.1645 12.4572 10.4572C12.1645 10.75 12 11.1471 12 11.5611C12 11.9751 12.1645 12.3722 12.4572 12.665C12.75 12.9577 13.1471 13.1222 13.5611 13.1222H16.9487C17.4342 16.5411 18.8221 21.8285 22.8247 24.05C18.5239 26.2199 17.2375 33.7695 16.8519 38.1ZM21.3667 32.7922C21.3667 30.9189 26.05 27.1722 26.05 27.1722C26.05 27.1722 30.7333 30.9189 30.7333 32.7922V38.1H21.3667V32.7922Z" fill="white"/>
</svg>
